<svg width="143" height="159" viewBox="0 0 143 159" fill="none" xmlns="http://www.w3.org/2000/svg">
<g id="Connector line">
<path id="Shape" d="M2 0.5C1.17157 0.5 0.5 1.17157 0.5 2C0.5 2.82843 1.17157 3.5 2 3.5V0.5ZM142.061 148.061C142.646 147.475 142.646 146.525 142.061 145.939L132.515 136.393C131.929 135.808 130.979 135.808 130.393 136.393C129.808 136.979 129.808 137.929 130.393 138.515L138.879 147L130.393 155.485C129.808 156.071 129.808 157.021 130.393 157.607C130.979 158.192 131.929 158.192 132.515 157.607L142.061 148.061ZM2 3.5H43.5V0.5H2V3.5ZM66 26V123H69V26H66ZM91.5 148.5H141V145.5H91.5V148.5ZM66 123C66 137.083 77.4167 148.5 91.5 148.5V145.5C79.0736 145.5 69 135.426 69 123H66ZM43.5 3.5C55.9264 3.5 66 13.5736 66 26H69C69 11.9167 57.5833 0.5 43.5 0.5V3.5Z" fill="#7C0201"/>
</g>
</svg>
