<svg width="140" height="142" viewBox="0 0 140 142" fill="none" xmlns="http://www.w3.org/2000/svg">
<g id="Connector line">
<path id="Shape" d="M2 138.5C1.17157 138.5 0.5 139.172 0.5 140C0.5 140.828 1.17157 141.5 2 141.5V138.5ZM139.061 13.0607C139.646 12.4749 139.646 11.5251 139.061 10.9393L129.515 1.3934C128.929 0.807612 127.979 0.807612 127.393 1.3934C126.808 1.97918 126.808 2.92893 127.393 3.51472L135.879 12L127.393 20.4853C126.808 21.0711 126.808 22.0208 127.393 22.6066C127.979 23.1924 128.929 23.1924 129.515 22.6066L139.061 13.0607ZM2 141.5H46V138.5H2V141.5ZM71.5 116V36H68.5V116H71.5ZM94 13.5H138V10.5H94V13.5ZM71.5 36C71.5 23.5736 81.5736 13.5 94 13.5V10.5C79.9167 10.5 68.5 21.9167 68.5 36H71.5ZM46 141.5C60.0833 141.5 71.5 130.083 71.5 116H68.5C68.5 128.426 58.4264 138.5 46 138.5V141.5Z" fill="#7C0201"/>
</g>
</svg>
