<svg width="60" height="60" viewBox="0 0 60 60" fill="none" xmlns="http://www.w3.org/2000/svg">
<g id="Group 415">
<g id="react-icons/hi/HiOutlineUserCircle">
<path id="Vector (Stroke)" fill-rule="evenodd" clip-rule="evenodd" d="M30 10C24.6957 10 19.6086 12.1071 15.8579 15.8579C12.1071 19.6086 10 24.6957 10 30C10 32.6264 10.5173 35.2272 11.5224 37.6537C12.0562 38.9424 12.7221 40.1686 13.5074 41.3134C18.6323 38.8006 24.2747 37.4916 30.0019 37.5C35.9144 37.5003 41.513 38.8701 46.4928 41.3131C47.278 40.1684 47.9438 38.9423 48.4776 37.6537C49.4827 35.2272 50 32.6264 50 30C50 24.6957 47.8929 19.6086 44.1421 15.8579C40.3914 12.1071 35.3043 10 30 10ZM49.1628 46.0558C50.7939 44.109 52.1217 41.9215 53.097 39.5671C54.3534 36.5339 55 33.283 55 30C55 23.3696 52.3661 17.0107 47.6777 12.3223C42.9893 7.63392 36.6304 5 30 5C23.3696 5 17.0107 7.63392 12.3223 12.3223C7.63392 17.0107 5 23.3696 5 30C5 33.283 5.64664 36.5339 6.90301 39.5671C7.87825 41.9215 9.20605 44.109 10.8372 46.0558C10.8741 46.1027 10.9123 46.1481 10.952 46.1918C11.3879 46.7045 11.8449 47.2003 12.3223 47.6777C14.6438 49.9991 17.3998 51.8406 20.4329 53.097C23.4661 54.3534 26.717 55 30 55C33.283 55 36.5339 54.3534 39.5671 53.097C42.6002 51.8406 45.3562 49.9991 47.6777 47.6777C48.1551 47.2003 48.6122 46.7045 49.048 46.1917C49.0877 46.148 49.1259 46.1027 49.1628 46.0558ZM42.9961 45.202C39.0179 43.4638 34.624 42.5 30 42.5L29.9962 42.5C25.5135 42.4932 21.0908 43.4182 17.0045 45.2026C18.5995 46.566 20.4017 47.6721 22.3463 48.4776C24.7728 49.4827 27.3736 50 30 50C32.6264 50 35.2272 49.4827 37.6537 48.4776C39.5985 47.672 41.401 46.5657 42.9961 45.202ZM30.0019 37.5C30.0025 37.5 30.0032 37.5 30.0038 37.5L30 40V37.5C30.0006 37.5 30.0013 37.5 30.0019 37.5ZM30 20C28.6739 20 27.4021 20.5268 26.4645 21.4645C25.5268 22.4021 25 23.6739 25 25C25 26.3261 25.5268 27.5979 26.4645 28.5355C27.4021 29.4732 28.6739 30 30 30C31.3261 30 32.5979 29.4732 33.5355 28.5355C34.4732 27.5979 35 26.3261 35 25C35 23.6739 34.4732 22.4021 33.5355 21.4645C32.5979 20.5268 31.3261 20 30 20ZM22.9289 17.9289C24.8043 16.0536 27.3478 15 30 15C32.6522 15 35.1957 16.0536 37.0711 17.9289C38.9464 19.8043 40 22.3478 40 25C40 27.6522 38.9464 30.1957 37.0711 32.0711C35.1957 33.9464 32.6522 35 30 35C27.3478 35 24.8043 33.9464 22.9289 32.0711C21.0536 30.1957 20 27.6522 20 25C20 22.3478 21.0536 19.8043 22.9289 17.9289Z" fill="#3F3F3F"/>
</g>
</g>
</svg>
