<svg width="96" height="96" viewBox="0 0 96 96" fill="none" xmlns="http://www.w3.org/2000/svg">
<g id="Group 409">
<circle id="Ellipse 41" cx="47.994" cy="48.2057" r="47.1073" stroke="#7C0201"/>
<path id="Vector" d="M73.4463 53.1887C73.2647 53.3249 73.0581 53.424 72.8382 53.4803C72.6183 53.5367 72.3895 53.5491 72.1648 53.517C71.9401 53.4849 71.724 53.4089 71.5287 53.2933C71.3334 53.1776 71.1627 53.0246 71.0266 52.8431C69.9848 51.4428 68.6288 50.3066 67.0677 49.5261C65.5067 48.7456 63.7842 48.3425 62.0389 48.3492C61.699 48.3492 61.3667 48.249 61.0835 48.061C60.8003 47.8731 60.5787 47.6059 60.4466 47.2927C60.3569 47.0801 60.3107 46.8516 60.3107 46.6208C60.3107 46.39 60.3569 46.1616 60.4466 45.9489C60.5787 45.6358 60.8003 45.3685 61.0835 45.1806C61.3667 44.9927 61.699 44.8925 62.0389 44.8924C63.0087 44.8923 63.959 44.6203 64.7819 44.1072C65.6048 43.5941 66.2674 42.8605 66.6943 41.9897C67.1211 41.1189 67.2953 40.1459 67.1969 39.1811C67.0985 38.2163 66.7315 37.2985 66.1376 36.5318C65.5436 35.7651 64.7466 35.1804 63.8371 34.844C62.9275 34.5076 61.9418 34.433 60.992 34.6288C60.0422 34.8245 59.1663 35.2826 58.4638 35.9512C57.7613 36.6198 57.2604 37.472 57.0179 38.411C56.9612 38.6308 56.8617 38.8374 56.7251 39.0188C56.5885 39.2002 56.4176 39.353 56.222 39.4684C56.0263 39.5837 55.8099 39.6594 55.5851 39.6911C55.3602 39.7229 55.1313 39.71 54.9114 39.6532C54.6915 39.5965 54.485 39.497 54.3036 39.3604C54.1221 39.2239 53.9694 39.0529 53.854 38.8573C53.7387 38.6617 53.663 38.4453 53.6312 38.2204C53.5995 37.9955 53.6124 37.7666 53.6691 37.5468C54.0057 36.2447 54.6414 35.0391 55.5258 34.0259C56.4103 33.0128 57.519 32.22 58.7637 31.7107C60.0084 31.2014 61.3548 30.9897 62.6958 31.0923C64.0367 31.195 65.3352 31.6092 66.4879 32.302C67.6407 32.9948 68.6158 33.947 69.3357 35.083C70.0556 36.2189 70.5005 37.5072 70.6349 38.8454C70.7693 40.1835 70.5896 41.5346 70.11 42.791C69.6304 44.0475 68.8641 45.1747 67.8722 46.0829C70.2224 47.1005 72.2655 48.7152 73.7985 50.7668C73.9346 50.9489 74.0336 51.156 74.0896 51.3763C74.1456 51.5966 74.1576 51.8259 74.1249 52.0508C74.0922 52.2758 74.0154 52.4921 73.8989 52.6874C73.7825 52.8826 73.6287 53.053 73.4463 53.1887ZM61.8056 66.4974C61.9306 66.6941 62.0146 66.9141 62.0524 67.1441C62.0903 67.3741 62.0812 67.6094 62.0257 67.8358C61.9702 68.0622 61.8696 68.2751 61.7297 68.4616C61.5899 68.6481 61.4137 68.8043 61.2119 68.921C61.0101 69.0377 60.7868 69.1123 60.5554 69.1404C60.3239 69.1685 60.0893 69.1495 59.8654 69.0846C59.6415 69.0196 59.4331 68.91 59.2526 68.7625C59.0722 68.6149 58.9235 68.4323 58.8154 68.2258C57.7266 66.3822 56.176 64.8543 54.3165 63.7929C52.457 62.7315 50.3528 62.1732 48.2117 62.1732C46.0706 62.1732 43.9665 62.7315 42.107 63.7929C40.2475 64.8543 38.6968 66.3822 37.608 68.2258C37.5 68.4323 37.3513 68.6149 37.1708 68.7625C36.9904 68.91 36.782 69.0196 36.5581 69.0846C36.3342 69.1495 36.0995 69.1685 35.8681 69.1404C35.6367 69.1123 35.4134 69.0377 35.2116 68.921C35.0097 68.8043 34.8336 68.6481 34.6938 68.4616C34.5539 68.2751 34.4532 68.0622 34.3978 67.8358C34.3423 67.6094 34.3332 67.3741 34.371 67.1441C34.4089 66.9141 34.4929 66.6941 34.6179 66.4974C36.2936 63.6182 38.8486 61.3525 41.9074 60.0332C40.1862 58.7154 38.9212 56.8913 38.2903 54.8174C37.6594 52.7435 37.6942 50.524 38.3899 48.4709C39.0857 46.4178 40.4073 44.6343 42.169 43.3712C43.9307 42.108 46.044 41.4287 48.2117 41.4287C50.3795 41.4287 52.4928 42.108 54.2545 43.3712C56.0162 44.6343 57.3378 46.4178 58.0335 48.4709C58.7292 50.524 58.7641 52.7435 58.1332 54.8174C57.5022 56.8913 56.2373 58.7154 54.5161 60.0332C57.5749 61.3525 60.1299 63.6182 61.8056 66.4974ZM48.2117 58.7196C49.5791 58.7196 50.9158 58.3141 52.0527 57.5544C53.1896 56.7948 54.0758 55.715 54.599 54.4517C55.1223 53.1884 55.2592 51.7983 54.9925 50.4572C54.7257 49.1161 54.0673 47.8843 53.1004 46.9174C52.1335 45.9505 50.9016 45.292 49.5605 45.0253C48.2194 44.7585 46.8293 44.8954 45.566 45.4187C44.3027 45.942 43.223 46.8281 42.4633 47.965C41.7036 49.102 41.2982 50.4386 41.2982 51.806C41.2982 53.6396 42.0265 55.3981 43.3231 56.6947C44.6196 57.9912 46.3781 58.7196 48.2117 58.7196ZM36.113 46.6208C36.113 46.1624 35.9309 45.7228 35.6067 45.3987C35.2826 45.0745 34.843 44.8924 34.3846 44.8924C33.4148 44.8923 32.4645 44.6203 31.6415 44.1072C30.8186 43.5941 30.1561 42.8605 29.7292 41.9897C29.3023 41.1189 29.1282 40.1459 29.2266 39.1811C29.325 38.2163 29.692 37.2985 30.2859 36.5318C30.8798 35.7651 31.6768 35.1804 32.5864 34.844C33.496 34.5076 34.4816 34.433 35.4315 34.6288C36.3813 34.8245 37.2572 35.2826 37.9597 35.9512C38.6622 36.6198 39.1631 37.472 39.4056 38.411C39.5202 38.855 39.8065 39.2354 40.2015 39.4684C40.5966 39.7013 41.068 39.7678 41.512 39.6532C41.9561 39.5386 42.3365 39.2523 42.5695 38.8573C42.8024 38.4622 42.8689 37.9908 42.7543 37.5468C42.4178 36.2447 41.7821 35.0391 40.8976 34.0259C40.0132 33.0128 38.9045 32.22 37.6598 31.7107C36.4151 31.2014 35.0687 30.9897 33.7277 31.0923C32.3867 31.195 31.0882 31.6092 29.9355 32.302C28.7828 32.9948 27.8077 33.947 27.0878 35.083C26.3678 36.2189 25.923 37.5072 25.7886 38.8454C25.6541 40.1835 25.8339 41.5346 26.3135 42.791C26.7931 44.0475 27.5593 45.1747 28.5512 46.0829C26.2034 47.1014 24.1627 48.7161 22.6315 50.7668C22.3562 51.1335 22.2378 51.5946 22.3024 52.0486C22.367 52.5026 22.6094 52.9123 22.9761 53.1876C23.3428 53.463 23.8039 53.5813 24.2579 53.5167C24.7119 53.4521 25.1216 53.2098 25.3969 52.8431C26.4387 51.4428 27.7947 50.3066 29.3557 49.5261C30.9168 48.7456 32.6393 48.3425 34.3846 48.3492C34.843 48.3492 35.2826 48.1671 35.6067 47.843C35.9309 47.5189 36.113 47.0792 36.113 46.6208Z" fill="black"/>
</g>
</svg>
