<svg width="96" height="96" viewBox="0 0 96 96" fill="none" xmlns="http://www.w3.org/2000/svg">
<g id="Group 407">
<circle id="Ellipse 40" cx="47.994" cy="47.6281" r="47.1073" stroke="#7C0201"/>
<g id="react-icons/md/MdSportsKabaddi">
<path id="Vector" d="M56.9204 32.5124C59.1115 32.5124 60.8877 30.7362 60.8877 28.5452C60.8877 26.3541 59.1115 24.5779 56.9204 24.5779C54.7293 24.5779 52.9531 26.3541 52.9531 28.5452C52.9531 30.7362 54.7293 32.5124 56.9204 32.5124Z" fill="black"/>
<path id="Vector_2" d="M71.7971 47.3898V38.0667L61.7797 33.8217C59.8556 33.0084 57.6339 33.7027 56.5231 35.488L54.5394 38.6618C53.2104 41.0025 50.7507 42.7481 47.7752 43.2638L47.8942 43.3829C49.263 44.7516 50.9094 45.5053 52.774 45.7037C54.3609 44.8706 55.7891 43.7597 56.9198 42.4505L58.11 48.4015L55.809 50.5835L53.9443 52.3489V67.2262H57.9116V55.3244L62.0773 51.3571L65.6478 67.2262H69.8134L65.4891 45.4062L64.2593 39.2569L67.8298 40.6454V47.3898H71.7971ZM44.6014 39.8718C45.0378 40.1694 45.5337 40.3479 46.0296 40.4471C46.2875 40.4867 46.5255 40.5264 46.7834 40.5264C47.0413 40.5264 47.2991 40.5066 47.5372 40.4471C47.7951 40.4074 48.0331 40.3281 48.2711 40.2289C48.7472 40.0305 49.2034 39.7528 49.5803 39.3561C50.5523 38.3841 50.9094 37.0352 50.6713 35.7855C50.5325 35.0516 50.1754 34.3176 49.5803 33.7424C49.2034 33.3655 48.7472 33.0679 48.2711 32.8696C48.0331 32.7704 47.7951 32.691 47.5372 32.6514C47.2793 32.6117 47.0413 32.572 46.7834 32.572C46.5454 32.572 46.3272 32.5919 46.0891 32.6315C45.8114 32.6712 45.5337 32.7505 45.2758 32.8497C44.8196 33.0679 44.3634 33.3655 43.9865 33.7424C43.3914 34.3176 43.0343 35.0516 42.8955 35.7855C42.6574 37.0352 43.0145 38.3841 43.9865 39.3561C44.165 39.5544 44.3832 39.7131 44.6014 39.8718Z" fill="black"/>
<path id="Vector_3" d="M46.486 44.7714L42.5187 40.8041C42.3203 40.6057 42.122 40.447 41.9038 40.2883C41.47 40.0088 40.9842 39.8199 40.4756 39.7329C40.2177 39.6734 39.9796 39.6536 39.7218 39.6536C38.7101 39.6536 37.6985 40.0503 36.9248 40.8239L30.2995 47.4493C29.4862 48.2626 29.0696 49.3932 29.149 50.5041C29.149 50.8611 29.2283 51.238 29.3672 51.5951L31.4897 57.4468L24.2891 64.6474L27.086 67.4642L35.4966 59.0536V54.6499L38.0754 57.0501V67.2261H42.0426V55.3243L37.8373 51.119L42.5187 46.4376L43.9271 47.846C46.486 50.3454 49.8185 51.8926 53.9048 51.8926L53.6271 47.7865C50.6516 47.7468 48.2713 46.5566 46.486 44.7714Z" fill="black"/>
</g>
</g>
</svg>
