<svg width="96" height="96" viewBox="0 0 96 96" fill="none" xmlns="http://www.w3.org/2000/svg">
<g id="Group 408">
<circle id="Ellipse 39" cx="47.5976" cy="48.2057" r="47.1073" stroke="#7C0201"/>
<path id="Vector" d="M54.4914 32.8572C54.4914 31.5616 54.1072 30.295 53.3873 29.2178C52.6675 28.1405 51.6444 27.3009 50.4474 26.805C49.2504 26.3092 47.9333 26.1795 46.6626 26.4323C45.3918 26.685 44.2246 27.3089 43.3085 28.2251C42.3923 29.1412 41.7684 30.3085 41.5157 31.5792C41.2629 32.8499 41.3926 34.1671 41.8884 35.3641C42.3842 36.5611 43.2239 37.5842 44.3011 38.304C45.3784 39.0238 46.6449 39.408 47.9406 39.408C49.6779 39.408 51.3442 38.7178 52.5727 37.4893C53.8012 36.2608 54.4914 34.5946 54.4914 32.8572ZM47.9406 36.1326C47.2928 36.1326 46.6595 35.9405 46.1209 35.5806C45.5822 35.2207 45.1624 34.7091 44.9145 34.1106C44.6666 33.5121 44.6017 32.8536 44.7281 32.2182C44.8545 31.5828 45.1664 30.9992 45.6245 30.5411C46.0826 30.0831 46.6662 29.7711 47.3016 29.6447C47.9369 29.5183 48.5955 29.5832 49.194 29.8311C49.7925 30.079 50.3041 30.4988 50.664 31.0375C51.0239 31.5761 51.216 32.2094 51.216 32.8572C51.216 33.7259 50.8709 34.559 50.2566 35.1732C49.6424 35.7875 48.8093 36.1326 47.9406 36.1326ZM69.1283 42.624C68.9418 41.7068 68.4409 40.8835 67.7121 40.2963C66.9833 39.7091 66.0722 39.3949 65.1364 39.408H30.7448C29.8114 39.4079 28.9061 39.7268 28.1788 40.3117C27.4515 40.8966 26.9459 41.7124 26.7457 42.624C26.5455 43.5356 26.6628 44.4883 27.0781 45.3241C27.4934 46.1599 28.1818 46.8287 29.0293 47.2198H29.0559L39.445 51.7951L35.1461 68.1147C34.6962 69.1056 34.6585 70.2345 35.041 71.2532C35.4236 72.2719 36.1952 73.097 37.186 73.5468C38.1769 73.9966 39.3058 74.0344 40.3245 73.6518C41.3432 73.2692 42.1682 72.4977 42.6181 71.5068L47.9406 62.3214L53.2631 71.5068C53.7361 72.4554 54.5585 73.1836 55.5575 73.5382C56.5564 73.8928 57.6539 73.8462 58.6192 73.4081C59.5844 72.97 60.3421 72.1747 60.7329 71.1894C61.1237 70.204 61.1172 69.1055 60.7146 68.125L56.4156 51.8053L66.8048 47.23H66.8314C67.6925 46.8521 68.3938 46.1842 68.8135 45.3427C69.2331 44.5012 69.3445 43.5392 69.1283 42.624ZM65.4844 44.2412L53.8301 49.3713C53.4734 49.5285 53.1844 49.8078 53.0151 50.1591C52.8459 50.5103 52.8075 50.9104 52.9069 51.2874L57.5886 69.0912C57.6125 69.1865 57.6461 69.2791 57.689 69.3676C57.7577 69.5145 57.7812 69.6785 57.7565 69.8388C57.7319 69.9991 57.6602 70.1485 57.5506 70.268C57.4409 70.3875 57.2983 70.4718 57.1407 70.5101C56.9831 70.5484 56.8177 70.5391 56.6654 70.4833C56.4618 70.4086 56.2962 70.2562 56.2048 70.0595C56.184 70.0152 56.1608 69.9722 56.1352 69.9305L49.3572 58.2415C49.2132 57.9933 49.0066 57.7873 48.758 57.6441C48.5093 57.5009 48.2275 57.4255 47.9406 57.4255C47.6537 57.4255 47.3718 57.5009 47.1232 57.6441C46.8746 57.7873 46.6679 57.9933 46.524 58.2415L39.7521 69.9203C39.7265 69.9619 39.7032 70.005 39.6825 70.0493C39.5911 70.2459 39.4255 70.3983 39.2219 70.473C39.0696 70.5288 38.9042 70.5382 38.7466 70.4998C38.589 70.4615 38.4463 70.3773 38.3367 70.2578C38.2271 70.1382 38.1554 69.9889 38.1307 69.8286C38.1061 69.6683 38.1296 69.5043 38.1983 69.3573C38.2411 69.2689 38.2748 69.1763 38.2986 69.081L42.9743 51.2813C43.0736 50.9043 43.0353 50.5042 42.866 50.1529C42.6968 49.8017 42.4078 49.5224 42.051 49.3652L30.3967 44.2412C30.2295 44.1614 30.0942 44.0272 30.0131 43.8605C29.932 43.6938 29.9098 43.5046 29.9502 43.3237C29.9907 43.1428 30.0912 42.9809 30.2356 42.8646C30.3799 42.7483 30.5594 42.6844 30.7448 42.6834H65.1364C65.3223 42.683 65.5027 42.7459 65.6481 42.8618C65.7935 42.9776 65.8951 43.1394 65.9363 43.3207C65.9775 43.5019 65.9559 43.6918 65.8748 43.8591C65.7938 44.0264 65.6583 44.1612 65.4905 44.2412H65.4844Z" fill="black"/>
</g>
</svg>
