<svg width="96" height="96" viewBox="0 0 96 96" fill="none" xmlns="http://www.w3.org/2000/svg">
<g id="Group 406">
<circle id="Ellipse 38" cx="47.5976" cy="47.6281" r="47.1073" stroke="#7C0201"/>
<g id="react-icons/md/MdSettingsAccessibility">
<path id="Vector" d="M64.4598 31.7588C59.2825 33.1473 53.2125 33.7424 47.5988 33.7424C41.9851 33.7424 35.9152 33.1473 30.7379 31.7588L29.7461 35.7261C33.4357 36.7179 37.6806 37.3725 41.6479 37.7097V61.5134H45.6152V49.6115H49.5825V61.5134H53.5498V37.7097C57.517 37.3725 61.762 36.7179 65.4516 35.7261L64.4598 31.7588ZM47.5988 31.7588C49.7808 31.7588 51.5661 29.9735 51.5661 27.7915C51.5661 25.6095 49.7808 23.8242 47.5988 23.8242C45.4168 23.8242 43.6316 25.6095 43.6316 27.7915C43.6316 29.9735 45.4168 31.7588 47.5988 31.7588ZM37.6806 71.4315H41.6479V67.4643H37.6806V71.4315ZM45.6152 71.4315H49.5825V67.4643H45.6152V71.4315ZM53.5498 71.4315H57.517V67.4643H53.5498V71.4315Z" fill="black"/>
</g>
</g>
</svg>
