<svg width="96" height="96" viewBox="0 0 96 96" fill="none" xmlns="http://www.w3.org/2000/svg">
<g id="Group 404">
<circle id="Ellipse 36" cx="47.5976" cy="48.0502" r="47.1073" stroke="#7C0201"/>
<path id="Vector" d="M65.3626 41.7087C65.3643 38.7677 64.6228 35.874 63.2069 33.2962C61.7909 30.7185 59.7465 28.5404 57.2634 26.9643C54.7804 25.3882 51.9393 24.4651 49.0041 24.2809C46.0688 24.0966 43.1346 24.6572 40.474 25.9104C37.8134 27.1637 35.5126 29.069 33.7855 31.4495C32.0583 33.8299 30.9607 36.6082 30.5947 39.5264C30.2286 42.4445 30.606 45.4079 31.6918 48.1411C32.7775 50.8744 34.5364 53.289 36.8051 55.1605V70.2662C36.8049 70.5368 36.8739 70.8029 37.0056 71.0393C37.1372 71.2757 37.3271 71.4745 37.5573 71.6168C37.7874 71.7591 38.0501 71.8402 38.3204 71.8523C38.5907 71.8645 38.8596 71.8073 39.1016 71.6862L47.9108 67.2915L56.722 71.6961C56.9429 71.8018 57.1851 71.8554 57.43 71.8528C57.8507 71.8528 58.2543 71.6856 58.5518 71.3881C58.8493 71.0906 59.0165 70.687 59.0165 70.2662V55.1605C61.0015 53.5257 62.6 51.4716 63.6972 49.1459C64.7944 46.8201 65.3631 44.2803 65.3626 41.7087ZM33.632 41.7087C33.632 38.8847 34.4695 36.124 36.0384 33.7759C37.6074 31.4278 39.8375 29.5976 42.4466 28.5169C45.0557 27.4362 47.9266 27.1534 50.6964 27.7044C53.4662 28.2553 56.0105 29.6152 58.0074 31.6121C60.0043 33.6091 61.3642 36.1533 61.9152 38.9231C62.4661 41.6929 62.1834 44.5639 61.1026 47.173C60.0219 49.7821 58.1918 52.0121 55.8436 53.5811C53.4955 55.1501 50.7349 55.9875 47.9108 55.9875C44.1251 55.9833 40.4957 54.4776 37.8188 51.8007C35.142 49.1238 33.6362 45.4944 33.632 41.7087ZM55.8434 67.7L48.6188 64.0887C48.3984 63.9784 48.1553 63.921 47.9088 63.921C47.6623 63.921 47.4193 63.9784 47.1988 64.0887L39.9782 67.7V57.2508C42.434 58.506 45.1527 59.1605 47.9108 59.1605C50.6689 59.1605 53.3876 58.506 55.8434 57.2508V67.7ZM47.9108 52.8144C50.1073 52.8144 52.2545 52.1631 54.0808 50.9428C55.9071 49.7225 57.3306 47.988 58.1711 45.9587C59.0117 43.9294 59.2316 41.6964 58.8031 39.5421C58.3746 37.3878 57.3169 35.409 55.7637 33.8558C54.2105 32.3027 52.2317 31.245 50.0774 30.8164C47.9231 30.3879 45.6901 30.6079 43.6608 31.4484C41.6315 32.289 39.8971 33.7124 38.6767 35.5388C37.4564 37.3651 36.8051 39.5123 36.8051 41.7087C36.8082 44.6532 37.9793 47.4761 40.0614 49.5582C42.1434 51.6402 44.9663 52.8113 47.9108 52.8144ZM47.9108 33.7761C49.4797 33.7761 51.0134 34.2414 52.3179 35.113C53.6224 35.9847 54.6392 37.2236 55.2396 38.6731C55.84 40.1226 55.9971 41.7175 55.691 43.2563C55.3849 44.7951 54.6294 46.2086 53.52 47.318C52.4106 48.4274 50.9972 49.1829 49.4584 49.489C47.9196 49.795 46.3246 49.638 44.8751 49.0376C43.4256 48.4371 42.1867 47.4204 41.315 46.1159C40.4434 44.8114 39.9782 43.2777 39.9782 41.7087C39.9782 39.6049 40.8139 37.5872 42.3016 36.0995C43.7892 34.6119 45.8069 33.7761 47.9108 33.7761Z" fill="black"/>
</g>
</svg>
