<svg width="96" height="96" viewBox="0 0 96 96" fill="none" xmlns="http://www.w3.org/2000/svg">
<g id="Group 405">
<circle id="Ellipse 37" cx="47.994" cy="48.0502" r="47.1073" stroke="#7C0201"/>
<path id="Vector" d="M46.613 40.2615C48.0085 40.2615 49.3725 39.8478 50.5328 39.0725C51.693 38.2973 52.5973 37.1954 53.1313 35.9062C53.6653 34.617 53.805 33.1984 53.5328 31.8298C53.2606 30.4612 52.5886 29.204 51.6019 28.2173C50.6152 27.2306 49.3581 26.5587 47.9895 26.2864C46.6209 26.0142 45.2023 26.1539 43.9131 26.6879C42.6239 27.2219 41.522 28.1262 40.7468 29.2865C39.9715 30.4467 39.5577 31.8108 39.5577 33.2062C39.5577 35.0774 40.301 36.872 41.6242 38.1951C42.9473 39.5182 44.7419 40.2615 46.613 40.2615ZM46.613 29.6785C47.3108 29.6785 47.9928 29.8854 48.5729 30.2731C49.153 30.6607 49.6052 31.2116 49.8722 31.8562C50.1392 32.5008 50.209 33.2101 50.0729 33.8944C49.9368 34.5787 49.6008 35.2073 49.1075 35.7007C48.6141 36.194 47.9856 36.53 47.3013 36.6661C46.617 36.8022 45.9077 36.7324 45.2631 36.4654C44.6185 36.1984 44.0675 35.7462 43.6799 35.1661C43.2923 34.586 43.0854 33.9039 43.0854 33.2062C43.0854 32.2706 43.457 31.3733 44.1186 30.7118C44.7802 30.0502 45.6775 29.6785 46.613 29.6785ZM28.9747 42.0254C28.9747 41.3277 29.1816 40.6456 29.5692 40.0655C29.9569 39.4854 30.5078 39.0332 31.1524 38.7662C31.797 38.4992 32.5063 38.4294 33.1906 38.5655C33.8749 38.7016 34.5035 39.0376 34.9968 39.5309C35.4902 40.0243 35.8261 40.6529 35.9623 41.3372C36.0984 42.0215 36.0285 42.7308 35.7615 43.3754C35.4945 44.02 35.0424 44.5709 34.4622 44.9585C33.8821 45.3461 33.2001 45.553 32.5024 45.553C31.5668 45.553 30.6695 45.1814 30.0079 44.5198C29.3464 43.8582 28.9747 42.961 28.9747 42.0254ZM67.391 45.2466C67.0991 45.6119 66.6741 45.8464 66.2094 45.8985C65.7447 45.9506 65.2783 45.816 64.9128 45.5244C64.6593 45.3282 59.6853 41.6219 51.834 45.6589C51.7722 47.9022 51.5512 50.1384 51.1726 52.3504L58.3227 58.3034C58.5955 58.5305 58.7934 58.8347 58.8906 59.1761C58.9878 59.5176 58.9796 59.8804 58.8673 60.2171L55.3396 70.8001C55.1917 71.2439 54.8735 71.6108 54.455 71.82C54.0366 72.0293 53.5522 72.0637 53.1084 71.9157C52.6645 71.7678 52.2977 71.4496 52.0884 71.0312C51.8792 70.6127 51.8448 70.1283 51.9927 69.6845L55.139 60.2436L50.2708 56.1868C49.9527 57.2593 49.5774 58.3139 49.1464 59.3462C46.1148 66.5647 40.6844 71.391 33.0073 73.695C32.5631 73.8172 32.0887 73.7608 31.6855 73.5378C31.2824 73.3148 30.9825 72.9429 30.85 72.5016C30.7175 72.0604 30.7629 71.5848 30.9766 71.1766C31.1902 70.7684 31.555 70.4599 31.9931 70.3173C45.3717 66.3023 47.678 54.3943 48.1807 47.9056C42.2035 51.7 37.4786 52.6084 34.3456 52.6084C32.8697 52.6133 31.4036 52.3696 30.0088 51.8874C29.6357 51.7244 29.3304 51.4373 29.1449 51.0748C28.9594 50.7124 28.905 50.2969 28.9909 49.8989C29.0768 49.5009 29.2978 49.1449 29.6164 48.8912C29.9349 48.6376 30.3314 48.502 30.7385 48.5075C30.9907 48.5071 31.2398 48.5621 31.4683 48.6684C31.4683 48.6684 37.3684 51.0231 47.3847 44.2147C58.9136 36.3789 66.7869 42.5016 67.1198 42.7662C67.3005 42.9112 67.4509 43.0904 67.5624 43.2936C67.6738 43.4967 67.7441 43.7199 67.7693 43.9502C67.7945 44.1805 67.7741 44.4136 67.7091 44.636C67.6442 44.8585 67.5361 45.0659 67.391 45.2466Z" fill="black"/>
</g>
</svg>
