<svg width="80" height="80" viewBox="0 0 80 80" fill="none" xmlns="http://www.w3.org/2000/svg">
<g id="Group 354">
<circle id="Ellipse 54" cx="40" cy="40" r="39.5" stroke="#7C0201"/>
<g id="react-icons/hi/HiOutlineCalendar">
<path id="Vector (Stroke)" fill-rule="evenodd" clip-rule="evenodd" d="M33.334 23.3333C34.2545 23.3333 35.0007 24.0795 35.0007 25V26.6666H45.0007V25C45.0007 24.0795 45.7468 23.3333 46.6673 23.3333C47.5878 23.3333 48.334 24.0795 48.334 25V26.6666H51.6673C52.9934 26.6666 54.2652 27.1934 55.2029 28.1311C56.1405 29.0688 56.6673 30.3406 56.6673 31.6666V51.6666C56.6673 52.9927 56.1405 54.2645 55.2029 55.2022C54.2652 56.1399 52.9934 56.6666 51.6673 56.6666H28.334C27.0079 56.6666 25.7361 56.1399 24.7985 55.2022C23.8608 54.2645 23.334 52.9927 23.334 51.6666V31.6666C23.334 30.3406 23.8608 29.0688 24.7985 28.1311C25.7361 27.1934 27.0079 26.6666 28.334 26.6666H31.6673V25C31.6673 24.0795 32.4135 23.3333 33.334 23.3333ZM31.6673 30H28.334C27.892 30 27.468 30.1756 27.1555 30.4881C26.8429 30.8007 26.6673 31.2246 26.6673 31.6666V51.6666C26.6673 52.1087 26.8429 52.5326 27.1555 52.8452C27.468 53.1577 27.892 53.3333 28.334 53.3333H51.6673C52.1093 53.3333 52.5333 53.1577 52.8458 52.8452C53.1584 52.5326 53.334 52.1087 53.334 51.6666V31.6666C53.334 31.2246 53.1584 30.8007 52.8458 30.4881C52.5333 30.1756 52.1093 30 51.6673 30H48.334V31.6666C48.334 32.5871 47.5878 33.3333 46.6673 33.3333C45.7468 33.3333 45.0007 32.5871 45.0007 31.6666V30H35.0007V31.6666C35.0007 32.5871 34.2545 33.3333 33.334 33.3333C32.4135 33.3333 31.6673 32.5871 31.6673 31.6666V30ZM30.0007 38.3333C30.0007 37.4128 30.7468 36.6666 31.6673 36.6666H48.334C49.2545 36.6666 50.0007 37.4128 50.0007 38.3333C50.0007 39.2538 49.2545 40 48.334 40H31.6673C30.7468 40 30.0007 39.2538 30.0007 38.3333Z" fill="black"/>
</g>
</g>
</svg>
