<svg width="80" height="80" viewBox="0 0 80 80" fill="none" xmlns="http://www.w3.org/2000/svg">
<g id="Group 355">
<circle id="Ellipse 55" cx="40" cy="40" r="39.5" stroke="#7C0201"/>
<g id="react-icons/hi/HiOutlineClock">
<path id="Vector (Stroke)" fill-rule="evenodd" clip-rule="evenodd" d="M40.0007 26.6666C36.4644 26.6666 33.073 28.0714 30.5726 30.5719C28.0721 33.0724 26.6673 36.4638 26.6673 40C26.6673 41.7509 27.0122 43.4848 27.6823 45.1024C28.3523 46.7201 29.3344 48.19 30.5726 49.4281C31.8107 50.6662 33.2805 51.6483 34.8982 52.3184C36.5159 52.9884 38.2497 53.3333 40.0007 53.3333C41.7516 53.3333 43.4854 52.9884 45.1031 52.3184C46.7208 51.6483 48.1906 50.6662 49.4287 49.4281C50.6669 48.19 51.649 46.7201 52.319 45.1024C52.9891 43.4848 53.334 41.7509 53.334 40C53.334 36.4638 51.9292 33.0724 49.4287 30.5719C46.9283 28.0714 43.5369 26.6666 40.0007 26.6666ZM28.2155 28.2149C31.3411 25.0893 35.5804 23.3333 40.0007 23.3333C44.4209 23.3333 48.6602 25.0893 51.7858 28.2149C54.9114 31.3405 56.6673 35.5797 56.6673 40C56.6673 42.1887 56.2362 44.3559 55.3986 46.378C54.5611 48.4001 53.3334 50.2375 51.7858 51.7851C50.2381 53.3327 48.4008 54.5604 46.3787 55.398C44.3566 56.2356 42.1893 56.6666 40.0007 56.6666C37.812 56.6666 35.6447 56.2356 33.6226 55.398C31.6005 54.5604 29.7632 53.3327 28.2155 51.7851C26.6679 50.2375 25.4402 48.4001 24.6027 46.378C23.7651 44.3559 23.334 42.1887 23.334 40C23.334 35.5797 25.0899 31.3405 28.2155 28.2149ZM40.0007 31.6666C40.9211 31.6666 41.6673 32.4128 41.6673 33.3333V39.3096L46.1792 43.8215C46.83 44.4723 46.83 45.5276 46.1792 46.1785C45.5283 46.8294 44.473 46.8294 43.8221 46.1785L38.8221 41.1785C38.5096 40.8659 38.334 40.442 38.334 40V33.3333C38.334 32.4128 39.0802 31.6666 40.0007 31.6666Z" fill="black"/>
</g>
</g>
</svg>
