<svg width="80" height="80" viewBox="0 0 80 80" fill="none" xmlns="http://www.w3.org/2000/svg">
<circle cx="40" cy="40" r="39.5" stroke="#7C0201"/>
<path d="M55 29.9971C55 30.3948 54.8244 30.7762 54.5118 31.0574C54.1993 31.3386 53.7754 31.4966 53.3333 31.4966H46.6354C46.6542 31.744 46.6667 31.9933 46.6667 32.2464C46.6628 35.228 45.3446 38.0866 43.0012 40.1949C40.6579 42.3033 37.4807 43.4893 34.1667 43.4927H30.9771L46.1208 55.8787C46.2858 56.0104 46.4201 56.1703 46.5159 56.349C46.6118 56.5277 46.6672 56.7218 46.679 56.9199C46.6909 57.1181 46.6589 57.3164 46.585 57.5033C46.511 57.6903 46.3965 57.8621 46.2482 58.009C46.0999 58.1558 45.9206 58.2747 45.7208 58.3588C45.5211 58.4429 45.3047 58.4904 45.0844 58.4987C44.864 58.507 44.644 58.4758 44.4371 58.407C44.2302 58.3383 44.0406 58.2332 43.8792 58.098L25.5458 43.1029C25.2969 42.8993 25.1223 42.6327 25.0449 42.3382C24.9675 42.0437 24.991 41.7349 25.1122 41.4526C25.2335 41.1703 25.4469 40.9277 25.7243 40.7565C26.0018 40.5854 26.3303 40.4937 26.6667 40.4937H34.1667C36.597 40.4912 38.9269 39.6215 40.6454 38.0754C42.3639 36.5292 43.3306 34.4329 43.3333 32.2464C43.3333 31.9933 43.3187 31.744 43.2937 31.4966H26.6667C26.2246 31.4966 25.8007 31.3386 25.4882 31.0574C25.1756 30.7762 25 30.3948 25 29.9971C25 29.5994 25.1756 29.218 25.4882 28.9368C25.8007 28.6556 26.2246 28.4976 26.6667 28.4976H42.3271C41.5594 27.1442 40.3912 26.0079 38.9512 25.2141C37.5112 24.4203 35.8555 23.9998 34.1667 23.999H26.6667C26.2246 23.999 25.8007 23.841 25.4882 23.5598C25.1756 23.2786 25 22.8972 25 22.4995C25 22.1018 25.1756 21.7204 25.4882 21.4392C25.8007 21.158 26.2246 21 26.6667 21H53.3333C53.7754 21 54.1993 21.158 54.5118 21.4392C54.8244 21.7204 55 22.1018 55 22.4995C55 22.8972 54.8244 23.2786 54.5118 23.5598C54.1993 23.841 53.7754 23.999 53.3333 23.999H42.6542C44.1409 25.2368 45.2718 26.7804 45.95 28.4976H53.3333C53.7754 28.4976 54.1993 28.6556 54.5118 28.9368C54.8244 29.218 55 29.5994 55 29.9971Z" fill="black"/>
</svg>
