<svg width="80" height="80" viewBox="0 0 80 80" fill="none" xmlns="http://www.w3.org/2000/svg">
<g id="Group 357">
<circle id="Ellipse 57" cx="40" cy="40" r="39.5" stroke="#7C0201"/>
<g id="react-icons/hi/HiOutlineLocationMarker">
<path id="Vector (Stroke)" fill-rule="evenodd" clip-rule="evenodd" d="M40 26.6671C37.6926 26.6671 35.437 27.3514 33.5184 28.6333C31.5999 29.9152 30.1045 31.7373 29.2215 33.869C28.3384 36.0008 28.1074 38.3465 28.5575 40.6096C29.0076 42.8727 30.1186 44.9514 31.75 46.583C31.75 46.5829 31.7501 46.5831 31.75 46.583L38.8234 53.6547C38.9779 53.8093 39.162 53.9327 39.3639 54.0164C39.5658 54.1001 39.7823 54.1431 40.0008 54.1431C40.2194 54.1431 40.4358 54.1001 40.6378 54.0164C40.8397 53.9327 41.0231 53.81 41.1776 53.6554L48.2498 46.5832C48.2498 46.5832 48.2498 46.5832 48.2498 46.5832C49.8813 44.9515 50.9924 42.8727 51.4425 40.6096C51.8927 38.3465 51.6616 36.0008 50.7785 33.869C49.8955 31.7373 48.4002 29.9152 46.4816 28.6333C44.563 27.3514 42.3074 26.6671 40 26.6671ZM31.6665 25.8617C34.1333 24.2135 37.0333 23.3338 40 23.3338C42.9667 23.3338 45.8668 24.2135 48.3335 25.8617C50.8002 27.5099 52.7228 29.8525 53.8581 32.5934C54.9935 35.3342 55.2906 38.3502 54.7118 41.2599C54.1331 44.1696 52.7046 46.8423 50.6069 48.9401L43.5358 56.0112C43.5356 56.0114 43.536 56.011 43.5358 56.0112C43.0718 56.4755 42.5204 56.8443 41.9141 57.0957C41.3076 57.3471 40.6574 57.4765 40.0008 57.4765C39.3443 57.4765 38.6941 57.3471 38.0876 57.0957C37.481 56.8442 36.93 56.4757 36.4659 56.0112L29.3933 48.9403C27.2956 46.8425 25.8669 44.1696 25.2882 41.2599C24.7095 38.3502 25.0066 35.3342 26.1419 32.5934C27.2772 29.8525 29.1998 27.5099 31.6665 25.8617Z" fill="black"/>
<path id="Vector (Stroke)_2" fill-rule="evenodd" clip-rule="evenodd" d="M40.0007 35C39.1166 35 38.2687 35.3512 37.6436 35.9763C37.0185 36.6015 36.6673 37.4493 36.6673 38.3334C36.6673 39.2174 37.0185 40.0653 37.6436 40.6904C38.2687 41.3155 39.1166 41.6667 40.0007 41.6667C40.8847 41.6667 41.7326 41.3155 42.3577 40.6904C42.9828 40.0653 43.334 39.2174 43.334 38.3334C43.334 37.4493 42.9828 36.6015 42.3577 35.9763C41.7326 35.3512 40.8847 35 40.0007 35ZM35.2866 33.6193C36.5368 32.3691 38.2325 31.6667 40.0007 31.6667C41.7688 31.6667 43.4645 32.3691 44.7147 33.6193C45.9649 34.8696 46.6673 36.5652 46.6673 38.3334C46.6673 40.1015 45.9649 41.7972 44.7147 43.0474C43.4645 44.2976 41.7688 45 40.0007 45C38.2325 45 36.5368 44.2976 35.2866 43.0474C34.0364 41.7972 33.334 40.1015 33.334 38.3334C33.334 36.5652 34.0364 34.8696 35.2866 33.6193Z" fill="black"/>
</g>
</g>
</svg>
