<svg width="80" height="80" viewBox="0 0 80 80" fill="none" xmlns="http://www.w3.org/2000/svg">
<g id="Group 356">
<circle id="Ellipse 56" cx="40" cy="40" r="39.5" stroke="#7C0201"/>
<g id="react-icons/hi/HiOutlineUserRemove">
<path id="Vector (Stroke)" fill-rule="evenodd" clip-rule="evenodd" d="M35.0007 26.6666C33.6746 26.6666 32.4028 27.1934 31.4651 28.1311C30.5274 29.0688 30.0007 30.3406 30.0007 31.6666C30.0007 32.9927 30.5274 34.2645 31.4651 35.2022C32.4028 36.1399 33.6746 36.6666 35.0007 36.6666C36.3267 36.6666 37.5985 36.1399 38.5362 35.2022C39.4739 34.2645 40.0007 32.9927 40.0007 31.6666C40.0007 30.3406 39.4739 29.0688 38.5362 28.1311C37.5985 27.1934 36.3267 26.6666 35.0007 26.6666ZM29.1081 25.7741C30.6709 24.2113 32.7905 23.3333 35.0007 23.3333C37.2108 23.3333 39.3304 24.2113 40.8932 25.7741C42.456 27.3369 43.334 29.4565 43.334 31.6666C43.334 33.8768 42.456 35.9964 40.8932 37.5592C39.3304 39.122 37.2108 40 35.0007 40C32.7905 40 30.6709 39.122 29.1081 37.5592C27.5453 35.9964 26.6673 33.8768 26.6673 31.6666C26.6673 29.4565 27.5453 27.3369 29.1081 25.7741ZM43.334 40C43.334 39.0795 44.0802 38.3333 45.0007 38.3333H55.0007C55.9211 38.3333 56.6673 39.0795 56.6673 40C56.6673 40.9205 55.9211 41.6666 55.0007 41.6666H45.0007C44.0802 41.6666 43.334 40.9205 43.334 40ZM26.7511 45.0837C28.939 42.8958 31.9065 41.6666 35.0007 41.6666C38.0948 41.6666 41.0623 42.8958 43.2502 45.0837C45.4382 47.2717 46.6673 50.2391 46.6673 53.3333V55C46.6673 55.9205 45.9211 56.6666 45.0007 56.6666H25.0007C24.0802 56.6666 23.334 55.9205 23.334 55V53.3333C23.334 50.2391 24.5631 47.2717 26.7511 45.0837ZM35.0007 45C32.7905 45 30.6709 45.878 29.1081 47.4408C27.5453 49.0036 26.6673 51.1232 26.6673 53.3333H43.334C43.334 51.1232 42.456 49.0036 40.8932 47.4408C39.3304 45.878 37.2108 45 35.0007 45Z" fill="black"/>
</g>
</g>
</svg>
